<svg version="1.1" viewBox="0.0 0.0 541.3963254593176 539.4593175853018" fill="none" stroke="none" stroke-linecap="square" stroke-miterlimit="10" xmlns:xlink="http://www.w3.org/1999/xlink" xmlns="http://www.w3.org/2000/svg"><clipPath id="p.0"><path d="m0 0l541.3963 0l0 539.4593l-541.3963 0l0 -539.4593z" clip-rule="nonzero"/></clipPath><g clip-path="url(#p.0)"><path fill="#000000" fill-opacity="0.0" d="m0 0l541.3963 0l0 539.4593l-541.3963 0z" fill-rule="evenodd"/><path fill="#674ea7" d="m1.8692238 269.55884l0 0c0 -148.64722 120.50238 -269.1496 269.1496 -269.1496l0 0c71.382904 0 139.84216 28.356752 190.3175 78.83209c50.47534 50.47535 78.83212 118.93459 78.83212 190.3175l0 0c0 148.64725 -120.50241 269.1496 -269.14963 269.1496l0 0c-148.64722 0 -269.1496 -120.50235 -269.1496 -269.1496z" fill-rule="evenodd"/><path fill="#f3f3f3" d="m152.74629 126.23951c2.1755981 0.32402802 4.0205536 0.8623352 5.534851 1.6149292c1.55159 0.72519684 3.0485382 1.7057877 4.4908447 2.94178c3.3078918 2.304428 5.750778 5.402359 7.328659 9.293823c1.5826874 3.8592224 2.0788574 7.770752 1.4884949 11.734558c-0.23518372 1.5790863 -0.39117432 2.6264343 -0.4679718 3.142044c-0.07199097 0.48339844 -0.6672058 0.69122314 -1.7856445 0.62345886c-0.37280273 -0.022567749 -0.82618713 -0.073638916 -1.3601837 -0.15316772c-1.0679474 -0.15905762 -2.4582367 -0.43199158 -4.1708374 -0.8188324c-2.568924 -0.58026123 -6.451111 -1.2572784 -11.646561 -2.0310822c-7.565872 -1.126831 -13.304306 -1.9320831 -17.215286 -2.4157562c-0.9777527 -0.1209259 -1.8877258 -0.24409485 -2.7299652 -0.36953735c-2.5266876 -0.37631226 -4.4435654 -0.772995 -5.750618 -1.1900024c-1.7379456 -0.58825684 -2.5908203 -1.3246918 -2.5586395 -2.2093048c0.036972046 -0.9168396 0.41348267 -2.4419403 1.1295166 -4.5752716c0.768837 -2.4878387 1.7692032 -4.8588257 3.0011063 -7.1129913c1.264389 -2.2493134 2.9215393 -4.1271973 4.971451 -5.6336365c2.0823822 -1.5016174 4.6916656 -2.5294647 7.827835 -3.0835342c3.1361694 -0.5540848 7.1071625 -0.47323608 11.912949 0.2425232zm-1.1756134 -30.24643c-0.74328613 -0.110702515 -1.490036 -0.21220398 -2.2402496 -0.3045044c-7.5946655 -0.9334793 -14.941254 -0.8582535 -22.039795 0.22566986c-7.0937347 1.051712 -13.638115 3.206398 -19.633156 6.464081c-5.995041 3.2576752 -10.71859 7.5611877 -14.170654 12.910553c-3.3772278 6.184021 -5.931793 12.638802 -7.663704 19.36435c-1.6994324 6.730377 -3.3861618 13.709702 -5.060173 20.937988c-1.5991821 8.062958 -2.6138687 16.212967 -3.044075 24.450012c-0.39772797 8.241898 -0.0463562 16.13417 1.0541 23.676865c1.1329346 7.547531 3.0341644 14.616547 5.703705 21.207016c2.7068024 6.5631104 6.4745483 12.131302 11.303268 16.704575c4.3930206 3.4872131 9.324486 6.0334473 14.794395 7.6387024c5.585106 0.8318329 11.6772 1.9368134 18.27626 3.3149414c3.3133698 0.7076111 6.6058197 1.3050385 9.877319 1.7922821c3.271515 0.48724365 6.5220947 0.8643341 9.751724 1.1312256c6.4544983 0.5660095 12.507034 0.2651062 18.157623 -0.9026947c5.6830444 -1.1629791 10.584518 -3.87529 14.704376 -8.136978c1.5738678 -0.9844055 3.0271454 -2.9420624 4.359848 -5.8729706c1.3651733 -2.9260712 2.656784 -6.4725037 3.8748322 -10.6392975c1.2505188 -4.161957 2.4401855 -8.695343 3.568985 -13.600128c1.1288147 -4.904785 2.2858582 -9.887726 3.4711456 -14.948807c-2.1168823 -0.9411621 -4.872864 -1.7139893 -8.26799 -2.3184662c-1.1208801 -0.19987488 -2.2621918 -0.38633728 -3.4239502 -0.55937195c-2.3235168 -0.34605408 -4.7288055 -0.6383972 -7.2158356 -0.87705994c-3.6980896 -0.35313416 -7.259079 -0.73526 -10.682999 -1.1463928c-1.1304626 -0.13543701 -2.1809845 -0.27542114 -3.1515198 -0.41996765c-1.9410858 -0.28909302 -3.562271 -0.59643555 -4.8635864 -0.9220123l0 0c-0.81985474 8.179016 -2.9771576 14.083572 -6.471878 17.713638c-3.4947205 3.630066 -7.3964996 5.5359955 -11.705322 5.7177734c-1.1351318 0.03944397 -2.26297 -0.024276733 -3.3835144 -0.19117737c-3.1282196 -0.46591187 -6.1996765 -1.7358551 -9.21434 -3.8097992c-4.0572815 -2.844284 -6.9327545 -6.7148743 -8.626427 -11.611801c-1.675293 -3.90596 -2.3806915 -7.749817 -2.1161728 -11.531586c0.26931763 -3.81398 0.7342987 -8.718811 1.3949432 -14.714508l0.7919464 -5.3173065c1.9556351 0.68655396 5.1108856 1.4529572 9.465744 2.2992096c4.3548584 0.8462372 9.276138 1.6780243 14.763824 2.495346c5.4877014 0.8173218 11.233337 1.574234 17.236893 2.270752c6.036026 0.7013397 11.713043 1.2503815 17.031021 1.6471405c5.350464 0.40159607 10.002777 0.6992035 13.956955 0.8928375c3.9589844 0.16140747 6.6654205 0.15272522 8.119293 -0.026031494c1.8227997 -8.22728 3.0467224 -16.444946 3.671753 -24.652985c0.6250305 -8.208038 -0.022109985 -15.897324 -1.9414215 -23.06784c-1.8868256 -7.1656876 -5.2700195 -13.533073 -10.149567 -19.102142c-4.874756 -5.601303 -11.7730255 -9.873405 -20.694824 -12.816292c-6.2323303 -2.5617676 -12.755264 -4.350052 -19.568802 -5.3648376z" fill-rule="evenodd"/><path fill="#f3f3f3" d="m282.782 154.69838c4.188843 0.62387085 7.4806213 1.4764862 9.875336 2.557846c2.3995056 1.0491486 4.0061646 2.8531342 4.819977 5.411972c0.84625244 2.5636597 1.0843506 6.0908813 0.7142334 10.581604c-0.33764648 4.495575 -1.082428 10.610489 -2.2343445 18.344772c-0.94555664 6.3485565 -1.9718323 12.125076 -3.0789185 17.32956c-1.0697937 5.177109 -2.6322937 9.539658 -4.687561 13.087662c-2.0552368 3.547989 -4.69104 6.2024536 -7.9074097 7.9634094c-3.2115173 1.728714 -7.3013916 2.2231293 -12.269531 1.4831848c-4.1888123 -0.62387085 -7.8272095 -2.2693024 -10.915131 -4.936249c-3.0506744 -2.6943512 -5.5038605 -6.0573425 -7.359604 -10.0890045c-1.8557281 -4.031662 -3.038742 -8.457245 -3.5490265 -13.276749c-0.5102997 -4.819504 -0.39585876 -9.710663 0.34327698 -14.673492c0.41278076 -2.7714539 0.9373627 -5.6250763 1.573761 -8.560852c0.6688843 -2.9309387 1.6967773 -5.7095947 3.0836945 -8.335968c2.0385437 -6.7786865 5.7595825 -11.593872 11.163055 -14.445541c5.435974 -2.8468323 12.245361 -3.6608887 20.428192 -2.442154zm52.11197 -89.90038c-2.0700378 -0.30831146 -4.0828247 -0.58338165 -6.03833 -0.8252182c-3.8785095 -0.47883224 -7.189331 -0.7578163 -9.932465 -0.83696365c-2.7383423 -0.11137009 -4.121887 -0.07037735 -4.150696 0.12297821l-0.48236084 3.2387276c-0.78518677 3.9347992 -1.3987122 6.9398727 -1.8405762 9.015228c-0.40460205 2.0479584 -0.7828064 3.9186783 -1.134613 5.6121597c-0.34698486 1.6612473 -0.708374 3.4191742 -1.0841675 5.2737885c-0.37579346 1.8546066 -0.822876 4.5221176 -1.3412476 8.002541c-0.5135803 3.4481964 -1.1999207 8.056526 -2.059082 13.825012c-0.8543396 5.7362595 -1.877655 13.275574 -3.0699158 22.617943c-0.12088013 -1.8627014 -2.0751343 -3.78434 -5.862732 -5.764923c-3.7876282 -1.9805832 -8.5354 -3.64299 -14.243347 -4.9872284c-2.8539734 -0.67211914 -5.815216 -1.2366867 -8.883789 -1.6937103c-3.068573 -0.45702362 -6.2444153 -0.80649567 -9.527557 -1.0484238c-6.533844 -0.47901917 -12.644684 -0.120918274 -18.33255 1.0742874c-4.6188354 0.92619324 -8.774872 3.0907135 -12.468109 6.493576c-3.65596 3.3754578 -6.847412 7.6436462 -9.574387 12.80452c-2.6944885 5.1657257 -4.9835052 10.951828 -6.86705 17.358322c-1.851059 6.411316 -3.2925568 13.081284 -4.3244934 20.009918c-1.2786713 9.922424 -2.0883331 19.815887 -2.429016 29.680405c-0.34066772 9.864487 0.54563904 18.956451 2.6589508 27.275864c2.1457672 8.324249 6.1215057 15.504578 11.927216 21.541c5.842972 6.009033 14.386978 10.262726 25.632034 12.761047c1.7273407 0.5069275 3.4421082 0.887146 5.144287 1.1406555c3.6880798 0.5492859 7.3171387 0.5037842 10.8871765 -0.13650513c5.250183 -0.93096924 9.829193 -4.1524963 13.7369995 -9.664581c0.5345459 -0.7574463 0.9838257 -1.1091003 1.3478699 -1.0548706c0.15167236 0.022583008 0.28857422 0.11566162 0.41064453 0.2791443c0.4475708 0.5607605 0.79177856 1.36969 1.0326233 2.4267273c-0.32635498 2.1913757 -0.52963257 3.890503 -0.60980225 5.0973816c-0.07537842 1.1746521 -0.26187134 2.7609863 -0.55944824 4.7590027c-0.14398193 0.9667969 -0.14978027 1.6741638 -0.017333984 2.1221008c4.2851257 1.2131958 8.972809 2.1988525 14.063049 2.9569702c1.908844 0.28430176 3.874298 0.5365906 5.8963623 0.7569275c7.4142456 0.8077698 14.222412 1.673523 20.424469 2.5972595c5.0270386 -28.404083 9.439484 -58.81024 13.237335 -91.21854c3.835144 -32.43567 8.214935 -65.18552 13.139404 -98.249535l2.9158325 -19.577377c-3.091034 -1.0862427 -6.8374023 -2.0065765 -11.239136 -2.7609787c-2.1846313 -0.37477875 -4.311981 -0.7163315 -6.3820496 -1.0246353z" fill-rule="evenodd"/><path fill="#f3f3f3" d="m455.46252 144.71938c-1.6174011 -0.2408905 -3.2323303 -0.40805054 -4.8448486 -0.5014801c-2.5290833 -0.17903137 -5.570404 -0.03904724 -9.123901 0.41993713l-0.17999268 1.2084808c-1.9484863 6.396805 -3.3611755 12.873428 -4.238098 19.42984c-0.87213135 6.5242004 -1.6564331 13.12735 -2.3529053 19.809448c-0.6965027 6.6821136 -1.4489136 13.405304 -2.2572021 20.169586c-0.7758179 6.7691193 -1.8763733 13.489883 -3.3016357 20.162262c-1.1816101 5.2592773 -3.1730652 9.047348 -5.9743347 11.364258c-2.7687988 2.3217316 -5.730316 3.7088776 -8.884552 4.1614227c-2.0327759 0.2978363 -4.04245 0.29882812 -6.029022 0.0029449463c-1.0642395 -0.1585083 -2.1218567 -0.40220642 -3.172821 -0.73109436c-3.0080261 -0.9750519 -5.2475586 -1.9838867 -6.718689 -3.026535c-0.16601562 -0.22236633 -0.36270142 -0.35047913 -0.58999634 -0.38433838c-0.19482422 -0.029006958 -0.37524414 -0.15470886 -0.5412903 -0.37709045c-1.4135132 -1.4293213 -2.414093 -3.291275 -3.001709 -5.585861c-0.550354 -2.3219604 -0.87890625 -4.9073486 -0.98568726 -7.7561646c-0.0743103 -2.8439941 0.0047302246 -5.714569 0.23706055 -8.61171c0.23233032 -2.8971405 0.41244507 -5.555023 0.5403137 -7.973587c0.4071045 -5.4075623 1.0179138 -11.1800995 1.832428 -17.317581c0.81933594 -6.169693 1.7336731 -12.308777 2.7430115 -18.417236c1.0141602 -6.140671 1.9483948 -12.079147 2.802765 -17.8154c0.8543396 -5.736252 1.4250488 -10.905334 1.7121582 -15.507263c-6.9813843 -1.0397797 -13.20874 -2.0166779 -18.682007 -2.9306793c-0.4975891 -0.08308411 -1.0019836 -0.16270447 -1.5132141 -0.23884583c-5.1122437 -0.7613983 -10.907196 -1.175293 -17.384796 -1.2416534c-0.61346436 6.793289 -1.682373 14.638748 -3.206726 23.536377c-1.5195312 8.865402 -3.0918884 18.085281 -4.7170105 27.659653c-1.6251221 9.574371 -3.2033997 19.056885 -4.7348022 28.447586c-1.4989014 9.395523 -2.6925964 18.078857 -3.5810852 26.050018c-0.8512268 7.9437714 -1.1633911 14.83136 -0.9365845 20.66275c0.26409912 5.8039856 1.270752 9.742126 3.0200195 11.814423c3.6608582 4.168762 7.969574 7.330475 12.926178 9.485138c4.3781433 1.8951111 8.959381 3.198944 13.743713 3.911499c0.667572 0.09942627 1.3391113 0.1873169 2.014618 0.2637329c5.5164795 0.6239624 11.004456 0.436615 16.463867 -0.5620117c5.459442 -0.9986267 10.506744 -2.6845398 15.141937 -5.0577087c1.1218262 -0.62350464 2.4871826 -1.2107239 4.096039 -1.7616882c1.613678 -0.5831909 2.953186 -1.1083679 4.0185547 -1.575592c-0.18548584 2.8052979 -0.50634766 5.293976 -0.96261597 7.4660034c-0.41900635 2.1446228 -0.6694031 4.9402466 -0.7512512 8.386871c-0.08639526 0.5800781 0.65875244 1.0369263 2.2354736 1.370575c0.52557373 0.11123657 1.0751953 0.20956421 1.6488342 0.29501343c1.1473389 0.17086792 2.3908386 0.29019165 3.7305603 0.3579712c2.0420227 0.10647583 4.0750427 0.16220093 6.098999 0.1671753c2.056427 0.00982666 3.4743042 0.072753906 4.2536316 0.18884277c2.4316711 0.16452026 4.450287 0.31692505 6.055786 0.45721436c1.610321 0.10809326 3.113617 0.26608276 4.5098877 0.47402954c1.3962708 0.2079773 2.880371 0.49490356 4.4522705 0.8607788c1.6091614 0.33847046 3.5845642 0.7809143 5.9262085 1.3273315c4.704315 -26.014496 8.610992 -51.241913 11.720001 -75.68225c3.1414795 -24.435501 6.524109 -48.81862 10.147858 -73.14935c-3.220581 -0.21614075 -6.0756226 -0.5095978 -8.5651245 -0.8803711c-1.244751 -0.18539429 -2.3981018 -0.39012146 -3.4600525 -0.61416626c-3.1534119 -0.66729736 -6.0217896 -1.2427368 -8.605103 -1.7263184c-0.9258423 -0.18580627 -1.8508911 -0.34753418 -2.775116 -0.48518372z" fill-rule="evenodd"/><path fill="#f3f3f3" d="m226.01535 314.79456c1.5968933 0.23782349 2.945343 0.67163086 4.0453186 1.3014221c1.128067 0.6048279 2.210266 1.435791 3.2466125 2.4929504c2.388382 1.9573975 4.121704 4.6326904 5.1999207 8.025787c1.0824738 3.364624 1.3627625 6.7990723 0.8408356 10.303345c-0.20791626 1.3959961 -0.3458252 2.32193 -0.41371155 2.777771c-0.06364441 0.42733765 -0.50701904 0.6234131 -1.3301086 0.5881653c-0.2743683 -0.01171875 -0.6075134 -0.046783447 -0.99946594 -0.105163574c-0.7838745 -0.116760254 -1.8029175 -0.3267517 -3.0570984 -0.6300354c-1.8812866 -0.45492554 -4.728653 -0.9663696 -8.542145 -1.5343628c-5.5533752 -0.8270874 -9.7664795 -1.4108887 -12.639328 -1.7514038c-0.7182007 -0.085113525 -1.3864136 -0.17373657 -2.0046082 -0.2658081c-1.8546143 -0.2762146 -3.2591705 -0.5836792 -4.213684 -0.9224243c-1.2684631 -0.48013306 -1.8811493 -1.1101379 -1.838089 -1.8900146c0.047302246 -0.8083801 0.35824585 -2.159912 0.93278503 -4.0546265c0.6212311 -2.2080994 1.4105988 -4.3183594 2.3681183 -6.33078c0.981369 -2.00885 2.2441711 -3.6991272 3.788437 -5.0708313c1.5681 -1.3681641 3.5142822 -2.3305664 5.8385773 -2.887146c2.324295 -0.5566101 5.250168 -0.5722351 8.777634 -0.046844482zm-55.594757 -30.820465c-2.4787598 -0.36917114 -4.910675 -0.64401245 -7.2957306 -0.8244934c-2.361206 -0.17694092 -4.6530457 -0.32901 -6.8755035 -0.45614624c-2.2182007 -0.15563965 -4.5786133 -0.41983032 -7.0812073 -0.792572c-2.5206451 4.983032 -5.1202545 11.395813 -7.798813 19.238342c-2.6504822 7.817627 -5.245926 15.920105 -7.7863464 24.307434c-2.5165863 8.390869 -5.0243835 16.477264 -7.523361 24.259186c-2.4947433 7.7534485 -4.944977 14.144806 -7.3507004 19.174042c-0.8119049 -5.5084534 -1.3187408 -12.165497 -1.5205154 -19.9711c-0.177948 -7.8020325 -0.22499084 -15.992279 -0.14111328 -24.57074c0.083869934 -8.578461 0.21802521 -17.003845 0.40248108 -25.276093c0.18869019 -8.300751 0.24160004 -15.68985 0.1587143 -22.167236c-2.7561188 -0.829834 -5.632866 -1.4679871 -8.630257 -1.9143982c-1.9982529 -0.29760742 -4.050125 -0.5100403 -6.1556473 -0.63723755c-1.9723206 -0.12994385 -3.937729 -0.34075928 -5.8962326 -0.6324463c-3.264183 -0.48617554 -6.509178 -1.1969604 -9.73497 -2.1324463l0 0c1.5951691 21.350952 2.604332 43.69211 3.0274887 67.02353c0.42738342 23.302917 0.4774933 46.112793 0.15031433 68.42969c2.7647781 0.41177368 5.92836 0.92663574 9.490768 1.5445557c3.5820007 0.6499939 7.2376328 1.2963867 10.966873 1.9391785c1.8646164 0.32138062 3.7115707 0.61831665 5.540848 0.8907471c1.8292847 0.27246094 3.6408844 0.52041626 5.434822 0.743927c3.611702 0.45056152 6.9236755 0.6234741 9.935898 0.5187988c4.1208954 -10.656403 8.046356 -21.472992 11.776428 -32.449707c3.7342987 -11.0052185 7.4601135 -21.95343 11.177444 -32.844696c3.717331 -10.891235 7.510086 -21.552856 11.378281 -31.984802c3.8920288 -10.428406 8.11792 -20.399384 12.677658 -29.912933c-3.0491486 -0.6288452 -5.8250275 -1.1296387 -8.327621 -1.5023804zm55.38936 4.2049255c-0.54559326 -0.08126831 -1.0939178 -0.1543274 -1.6450043 -0.21923828c-5.578842 -0.65615845 -10.996841 -0.42926025 -16.254013 0.68066406c-5.2529144 1.0814514 -10.124939 3.122406 -14.616074 6.122864c-4.4911346 3.0004578 -8.0677185 6.8943176 -10.729752 11.681519c-2.6251068 5.5207825 -4.6496124 11.262024 -6.073532 17.223816c-1.4000854 5.9653015 -2.7962341 12.149597 -4.1884613 18.552917c-1.3553009 7.1368713 -2.2815857 14.337616 -2.7788544 21.602295c-0.47343445 7.2681885 -0.38694763 14.212067 0.25946045 20.831665c0.6702423 6.623108 1.9173889 12.807983 3.7414398 18.554535c1.8521118 5.721649 4.508194 10.543762 7.968216 14.46637c3.1625519 2.9754944 6.7426605 5.1104126 10.740311 6.404724c4.0994873 0.6105652 8.566788 1.4506531 13.401886 2.5202332c2.427353 0.55081177 4.841675 1.0050354 7.242981 1.3626709c2.401291 0.35766602 4.789566 0.6187134 7.1648254 0.7831726c4.7462616 0.3574524 9.215149 -0.03994751 13.406631 -1.1921082c4.215317 -1.1485901 7.888275 -3.6447754 11.018875 -7.4885864c1.1818695 -0.90145874 2.296112 -2.6575623 3.342743 -5.26828c1.0704651 -2.6071472 2.1002655 -5.759094 3.089386 -9.455872c1.0129547 -3.6932068 1.9891663 -7.7122498 2.9286346 -12.057098c0.9394684 -4.3448486 1.9014587 -8.759155 2.8859863 -13.242889c-1.5401154 -0.7826843 -3.5551147 -1.4031372 -6.0449677 -1.8613586c-0.8220215 -0.15151978 -1.6593933 -0.290802 -2.5121307 -0.41781616c-1.7054749 -0.2539978 -3.4723969 -0.45892334 -5.300766 -0.6147461c-2.7187347 -0.23019409 -5.3357544 -0.48892212 -7.8510895 -0.7761841c-0.8304901 -0.094573975 -1.6019287 -0.19488525 -2.3143158 -0.30099487c-1.4247589 -0.21218872 -2.6132812 -0.44747925 -3.565567 -0.70578l0 0c-0.7832794 7.222046 -2.5028687 12.469971 -5.1587524 15.743774c-2.655899 3.2738037 -5.574188 5.0378723 -8.754898 5.2921753c-0.83773804 0.059570312 -1.6678619 0.02810669 -2.4903564 -0.09439087c-2.2961273 -0.34197998 -4.5328217 -1.3934021 -6.7100677 -3.1542358c-2.9290771 -2.416565 -4.964432 -5.762909 -6.1060333 -10.039124c-1.1497345 -3.403778 -1.5857391 -6.774048 -1.3080444 -10.110809c0.2819519 -3.3652954 0.7320099 -7.695648 1.3501587 -12.99115l0.7001343 -4.700836c1.4268036 0.5619812 3.7362823 1.1680298 6.9284515 1.8182068c3.1921692 0.650177 6.802246 1.2752075 10.830231 1.8751221c4.0279846 0.59991455 8.247467 1.1409912 12.658417 1.6231995c4.434799 0.4857788 8.608231 0.8452759 12.520294 1.0784607c3.935913 0.23672485 7.359375 0.39715576 10.270401 0.4812317c2.915268 0.055633545 4.9108124 -0.011199951 5.9865875 -0.20043945c1.5237732 -7.286499 2.6058044 -14.551422 3.2460632 -21.79477c0.6402893 -7.243347 0.33129883 -14.001984 -0.9269409 -20.275848c-1.234436 -6.2703247 -3.589508 -11.804779 -7.0652466 -16.603363c-3.4714966 -4.827057 -8.463913 -8.439117 -14.977249 -10.836182c-4.538849 -2.1201477 -9.308838 -3.5526733 -14.309998 -4.297516z" fill-rule="evenodd"/><path fill="#f3f3f3" d="m308.3079 304.0738c-0.9268799 -0.13806152 -1.9628906 -0.23413086 -3.1080322 -0.2881775c-1.6938477 -0.077545166 -3.328125 -0.14620972 -4.9028015 -0.20602417c-1.5508423 -0.056243896 -2.6242065 -0.12875366 -3.2200623 -0.21749878c-1.7653503 -0.0881958 -3.2523804 -0.1640625 -4.4610596 -0.22756958c-1.180603 -0.08847046 -2.2833557 -0.20904541 -3.3082275 -0.36166382c-1.0248718 -0.15264893 -2.1148987 -0.3586731 -3.2700195 -0.618103c-1.1509094 -0.28790283 -2.59552 -0.6486511 -4.3337708 -1.0822754c-4.013275 23.020142 -7.445099 45.32599 -10.295471 66.9176c-2.8503418 21.591614 -5.87735 43.142365 -9.080994 64.65225c2.38562 0.12231445 4.537079 0.32626343 6.4544067 0.6118469c0.9586487 0.14276123 1.8587952 0.30593872 2.700409 0.489563c2.5486145 0.5542908 4.912964 1.0374756 7.092987 1.4495544c0.79119873 0.16018677 1.5760193 0.2982483 2.3544617 0.41418457c1.3623047 0.20291138 2.7050781 0.3380432 4.0283813 0.4053955c2.0751953 0.13433838 4.4277344 -0.03945923 7.0576477 -0.52145386l0.15911865 -1.0683594c0.9631958 -6.467224 1.833374 -12.555145 2.6105042 -18.263763c0.77716064 -5.7086487 1.5751953 -11.312225 2.3941345 -16.81076c0.82318115 -5.527069 1.5544739 -11.009552 2.1938477 -16.44748c0.66744995 -5.46286 1.3858032 -11.267639 2.1550903 -17.414246c0.5868225 -4.9215393 1.7308655 -8.595245 3.432129 -11.021088c1.7250977 -2.4222717 3.8825073 -4.066681 6.472229 -4.9332275c2.5897217 -0.86654663 5.5291443 -1.0548706 8.818268 -0.56500244c3.3129578 0.49343872 6.909485 1.2911682 10.789581 2.3932495c0.14300537 0.02130127 1.1045532 0.3538208 2.8846436 0.9975281c1.7843018 0.61520386 3.5082397 1.3087769 5.171753 2.0807495c0.6837158 0.4804077 1.4116516 0.90914917 2.1838074 1.2862549c0.7721863 0.3771057 1.4903259 0.78985596 2.154419 1.2382202l1.8811646 1.1101379c0.22354126 -2.6459045 0.5559387 -5.450348 0.9972534 -8.4133c0.44552612 -2.9914246 0.9356079 -6.282013 1.4702759 -9.871765c0.53463745 -3.5897217 1.1771545 -7.6584473 1.9275818 -12.206177c0.7742615 -4.5441895 1.6047974 -9.793488 2.4916382 -15.747864c0.02545166 -0.17095947 -1.0279846 -0.45889282 -3.1603394 -0.86383057c-0.70285034 -0.13381958 -1.4607849 -0.261261 -2.2738037 -0.38235474c-1.6260071 -0.24215698 -3.4723816 -0.45892334 -5.539093 -0.65023804c-3.1000977 -0.2869873 -6.460541 -0.37979126 -10.08136 -0.27838135c-3.592743 0.07647705 -6.850006 0.43588257 -9.771759 1.0782471c-2.181305 0.5779114 -4.4229736 1.2341919 -6.725067 1.968811c-2.2782288 0.7381897 -3.7288208 1.2356262 -4.351776 1.4923096c0.1824646 -1.2250671 0.27612305 -2.0993347 0.28100586 -2.6228027c0.009124756 -0.5519409 0.04550171 -1.0415955 0.10916138 -1.4689331c0.067871094 -0.45584106 0.15274048 -1.0256348 0.25457764 -1.7094116c0.1060791 -0.71224976 0.26309204 -1.7663879 0.4710083 -3.162384c0.05090332 -0.3418579 -0.54885864 -0.6496277 -1.7993469 -0.9232178c-0.40890503 -0.090026855 -0.84506226 -0.16955566 -1.3085022 -0.23855591z" fill-rule="evenodd"/><path fill="#f3f3f3" d="m405.79782 313.65747c-4.5285034 -0.674469 -8.847076 -1.0409851 -12.955658 -1.0996094c-4.10437 -0.08709717 -7.616638 0.103271484 -10.536774 0.5711365c-7.5135803 1.2107239 -13.694458 4.7603455 -18.542633 10.648956c-4.8482056 5.8885803 -7.9481506 12.634552 -9.299835 20.237915c-1.3474426 7.5748596 -0.69039917 15.186157 1.9711914 22.833923c2.6896667 7.6228027 7.885742 13.711426 15.588287 18.2659c3.785492 2.718811 7.7337036 4.8357544 11.844666 6.3507996c4.139038 1.4901123 7.8039856 3.0552368 10.994904 4.695343c3.1908875 1.6401062 5.654236 3.6669312 7.3899536 6.080475c1.7357788 2.4135437 2.07724 5.682373 1.0244751 9.806488c-0.61227417 5.092499 -2.4570007 8.39975 -5.534149 9.921722c-2.4913025 1.2232056 -5.0733337 1.6357727 -7.746063 1.2377319c-0.59835815 -0.089141846 -1.201294 -0.21887207 -1.8087463 -0.38928223c-3.296997 -0.92785645 -6.258209 -2.8832397 -8.8836975 -5.8661194c-2.6254578 -2.9828796 -3.708435 -6.5077515 -3.2489014 -10.5746155c-4.5523376 -0.67800903 -9.884033 -1.6031494 -15.995087 -2.7753906c-1.666626 -0.31970215 -3.2888489 -0.5970764 -4.866638 -0.83206177c-4.207428 -0.62664795 -8.098938 -0.9520569 -11.674469 -0.97628784l-0.082733154 0.555542l-0.11456299 0.7692261c-1.0438232 7.008545 -0.7800598 13.498291 0.79125977 19.46936c1.575592 5.9425354 4.2339783 11.158142 7.975128 15.64679c3.7650146 4.492218 8.506348 8.154236 14.22406 10.9861145c4.8000183 2.3773499 10.2335205 4.0178223 16.300415 4.921417c1.1598511 0.17276001 2.342865 0.318573 3.5490417 0.43743896c0.37597656 0.06378174 0.7512207 0.123535156 1.1257324 0.17932129c8.052216 1.1992798 15.767487 0.5534668 23.145782 -1.9373779c7.721466 -2.6066895 13.913055 -7.9457703 18.574738 -16.01715c4.1989746 -9.217804 6.4170227 -17.158081 6.6540833 -23.8208c0.2609253 -6.6591797 -0.74642944 -13.390747 -3.0220642 -20.194733c-2.579895 -5.7426453 -7.292694 -10.332336 -14.138458 -13.769043c-6.8218994 -3.4331665 -14.228394 -6.458313 -22.219482 -9.075439c-3.15271 -1.8965149 -5.403015 -4.3721313 -6.7509155 -7.426819c-1.3198242 -3.0796509 -1.7718201 -6.0154724 -1.355957 -8.807495c0.41583252 -2.7919922 1.6340332 -5.2460938 3.654602 -7.362274c2.0444336 -2.1126099 4.799988 -3.2748108 8.266693 -3.4865417c0.34100342 0.019958496 0.68084717 0.05517578 1.0195312 0.10562134c1.580658 0.2354126 3.1366272 0.80288696 4.667938 1.7024841c1.863678 1.0638733 3.439392 2.5071106 4.727173 4.329712c1.3158569 1.797699 2.2219543 3.8110046 2.7183228 6.0399475c0.50057983 2.20047 0.36746216 4.321106 -0.39935303 6.361908c4.211273 1.7261047 8.750397 2.9515991 13.617371 3.6764832c0.67910767 0.101135254 1.3645935 0.1925354 2.056488 0.27420044c5.674164 0.6703491 10.924683 0.91360474 15.751587 0.7297363c1.4087524 -9.458649 1.2137756 -18.209686 -0.5848999 -26.253143c-1.7986755 -8.0434265 -5.8811035 -14.3302 -12.247284 -18.860352c-3.6326294 -1.6185608 -7.6805725 -3.065979 -12.143799 -4.342285c-4.4351807 -1.301239 -8.928925 -2.290863 -13.481262 -2.968872z" fill-rule="evenodd"/><path fill="#ffffff" d="m195.4669 503.3517l0 0c-128.54755 -34.44168 -203.36887 -172.02072 -167.11812 -307.29132c36.250748 -135.27063 169.84618 -217.00862 298.3937 -182.56693l0 0c-126.66637 -29.112314 -255.19113 52.559105 -290.59174 184.6573c-35.400585 132.0982 35.06277 267.08444 159.31613 305.20096z" fill-rule="evenodd"/><path fill="#ffffff" d="m142.16536 58.54601l0 0c108.9436 -76.43273 262.24554 -45.762474 342.40942 68.50394c80.16391 114.26641 56.833344 268.8586 -52.11023 345.29132l0 0c103.65878 -78.39987 123.78195 -229.06578 45.498077 -340.65237c-78.283875 -111.58659 -226.80246 -143.9367 -335.7973 -73.1429z" fill-rule="evenodd"/><path fill="#ffffff" d="m515.93475 273.93408l0 0c6.053406 132.9484 -101.0387 245.82202 -239.19687 252.11023c-138.15814 6.288208 -255.06471 -96.39017 -261.1181 -229.3386l0 0c10.506193 129.54575 125.83268 227.41025 260.75073 221.2695c134.918 -6.140747 240.874 -114.07681 239.56424 -244.04114z" fill-rule="evenodd"/></g></svg>